PathFileType	4	(X/Y/Z) S1_Point1_Trial1.trc
DataRate	CameraRate	NumFrames	NumMarkers	Units	OrigDataRate	OrigDataStartFrame	OrigNumFrames
1000.00	1000.00	6	43	m	1000.00	2006	5348
Frame#	Time	L.FootHeel			L.AnkleLateral			L.AnkleMedial			L.ToeLateral			L.ToeMedial			L.WristMedial			L.WristLateral			L.ShoulderFront			L.ShoulderRear			L.KneeLateral			L.KneeMedial			L.LowerArmLateral			L.LowerArmMedial			R.FootHeel			R.AnkleLateral			R.AnkleMedial			R.ToeLateral			R.ToeMedial			R.WristMedial			R.WristLateral			R.ShoulderFront			R.ShoulderRear			R.KneeLateral			R.KneeMedial			R.LowerArmLateral			R.LowerArmMedial			LASIS			LPSIS			RASIS			RPSIS			C7			CLAV			LACR			RACR			Head_Top			R.UpparArm			L.UpparArm			R.Thigh			L.Thigh			R.Shank			L.Shank			RFAsuperior			LFAsuperior			
		X1	Y1	Z1	X2	Y2	Z2	X3	Y3	Z3	X4	Y4	Z4	X5	Y5	Z5	X6	Y6	Z6	X7	Y7	Z7	X8	Y8	Z8	X9	Y9	Z9	X10	Y10	Z10	X11	Y11	Z11	X12	Y12	Z12	X13	Y13	Z13	X14	Y14	Z14	X15	Y15	Z15	X16	Y16	Z16	X17	Y17	Z17	X18	Y18	Z18	X19	Y19	Z19	X20	Y20	Z20	X21	Y21	Z21	X22	Y22	Z22	X23	Y23	Z23	X24	Y24	Z24	X25	Y25	Z25	X26	Y26	Z26	X27	Y27	Z27	X28	Y28	Z28	X29	Y29	Z29	X30	Y30	Z30	X31	Y31	Z31	X32	Y32	Z32	X33	Y33	Z33	X34	Y34	Z34	X35	Y35	Z35	X36	Y36	Z36	X37	Y37	Z37	X38	Y38	Z38	X39	Y39	Z39	X40	Y40	Z40	X41	Y41	Z41	X42	Y42	Z42	X43	Y43	Z43
2005	2.005	-0.316526	0.031366	-0.035764	-0.260883	0.074438	-0.067846	-0.248967	0.055548	-0.022619	-0.191623	-0.012498	-0.160018	-0.115047	0.024839	-0.120244	-0.128703	0.756435	-0.136476	-0.140653	0.765442	-0.15636	-0.236474	1.240455	-0.100949	-0.334118	1.244529	-0.084495	-0.24457	0.445586	-0.033392	-0.287989	0.444343	0.033266	-0.198866	0.975195	-0.170197	-0.235882	0.95336	-0.14126	-0.273062	0.049029	0.198898	-0.213344	0.077316	0.196851	-0.226463	0.085945	0.158111	-0.089847	0.018673	0.226229	-0.050355	0.029508	0.176813	0.006319	0.864032	0.310844	-0.003877	0.878352	0.364912	-0.258298	1.308355	0.143153	-0.33084	1.258653	0.121702	-0.21709	0.542624	0.188372	-0.27093	0.56718	0.126179	-0.134222	1.071406	0.289777	-0.141402	1.033623	0.261493	-0.126028	0.881632	-0.061537	-0.283535	0.908173	-0.01884	-0.129608	0.899323	0.153901	-0.273818	0.913091	0.128097	-0.294021	1.344069	0.017106	-0.2347	1.28112	0.013194	-0.257577	1.28964	-0.089508	-0.249391	1.29823	0.123289	-0.248239	1.572389	0.012286	-0.189136	1.137444	0.297519	-0.243768	1.091655	-0.195908	-0.165901	0.604419	0.218476	-0.229668	0.522264	-0.089143	-0.234021	0.302655	0.238463	-0.254029	0.24563	-0.079999	-0.075459	0.995111	0.31578	-0.188419	0.92808	-0.157116
2006	2.006	-0.316528	0.031367	-0.035769	-0.260883	0.074438	-0.067846	-0.248969	0.055545	-0.02262	-0.191624	-0.012496	-0.160021	-0.115047	0.024836	-0.120242	-0.128635	0.756405	-0.136439	-0.140577	0.765408	-0.156331	-0.236491	1.240372	-0.101046	-0.334143	1.244403	-0.084628	-0.244561	0.445585	-0.033401	-0.287993	0.444344	0.03325	-0.198808	0.975141	-0.170252	-0.235823	0.953305	-0.141315	-0.273058	0.049015	0.198897	-0.213344	0.077309	0.196848	-0.226463	0.085934	0.158107	-0.089841	0.018682	0.226231	-0.05035	0.029518	0.176815	0.007182	0.864948	0.31155	-0.003	0.879393	0.365587	-0.258436	1.308356	0.143021	-0.330945	1.258608	0.121565	-0.217079	0.542622	0.188371	-0.270904	0.567158	0.126157	-0.133902	1.071978	0.290028	-0.140937	1.034152	0.261764	-0.126016	0.881618	-0.061538	-0.28353	0.908161	-0.01887	-0.129633	0.899327	0.153898	-0.273839	0.913091	0.128068	-0.294132	1.344003	0.016948	-0.234778	1.281082	0.013082	-0.257624	1.28955	-0.089632	-0.249517	1.298228	0.123164	-0.248333	1.572374	0.012168	-0.189014	1.137867	0.297643	-0.243712	1.091601	-0.195957	-0.165912	0.604432	0.218483	-0.229647	0.522263	-0.089148	-0.23401	0.302655	0.238453	-0.254018	0.245627	-0.080001	-0.074961	0.99581	0.316195	-0.188348	0.928044	-0.157141
2007	2.007	-0.31653	0.031368	-0.035773	-0.260882	0.074438	-0.067847	-0.24897	0.055543	-0.022621	-0.191624	-0.012494	-0.160024	-0.115046	0.024833	-0.120241	-0.128566	0.756377	-0.1364	-0.1405	0.765375	-0.156299	-0.23651	1.240284	-0.101144	-0.33417	1.244268	-0.084761	-0.244553	0.445586	-0.033408	-0.287997	0.444346	0.033233	-0.198749	0.975085	-0.170319	-0.235761	0.953245	-0.141381	-0.273055	0.049004	0.198893	-0.213344	0.077303	0.196844	-0.226463	0.085924	0.158102	-0.089836	0.018691	0.226233	-0.050345	0.029527	0.176817	0.008018	0.865856	0.312229	-0.002162	0.880415	0.366235	-0.258576	1.308353	0.142889	-0.331051	1.258557	0.121427	-0.217069	0.542621	0.188368	-0.270875	0.56714	0.126132	-0.133595	1.072541	0.290289	-0.14049	1.034671	0.26205	-0.126011	0.881595	-0.061544	-0.28353	0.908147	-0.018901	-0.129657	0.899324	0.15389	-0.273859	0.913091	0.128038	-0.294248	1.34393	0.016789	-0.234858	1.281041	0.012969	-0.257673	1.289455	-0.089756	-0.249645	1.298222	0.123039	-0.248434	1.572355	0.012059	-0.188892	1.13829	0.297766	-0.243655	1.091548	-0.196007	-0.165923	0.604444	0.21849	-0.229625	0.522262	-0.089154	-0.233999	0.302656	0.238442	-0.254006	0.245625	-0.080004	-0.074448	0.996525	0.316597	-0.188277	0.928009	-0.157168
2008	2.008	-0.316531	0.031369	-0.035777	-0.26088	0.074439	-0.067847	-0.24897	0.05554	-0.022622	-0.191623	-0.012491	-0.160027	-0.115045	0.024831	-0.12024	-0.128498	0.75635	-0.136358	-0.140422	0.765343	-0.156265	-0.236525	1.240196	-0.101242	-0.334193	1.244134	-0.084897	-0.244544	0.445588	-0.033415	-0.288003	0.444351	0.033218	-0.198688	0.975029	-0.170391	-0.235697	0.953184	-0.141453	-0.273053	0.048995	0.198888	-0.213344	0.077299	0.196838	-0.226462	0.085916	0.158096	-0.089831	0.018699	0.226236	-0.05034	0.029535	0.17682	0.00883	0.866761	0.312878	-0.001357	0.88142	0.366856	-0.258718	1.30835	0.142755	-0.331157	1.258507	0.121287	-0.217059	0.542622	0.188364	-0.270846	0.567125	0.126104	-0.133301	1.073097	0.29056	-0.140061	1.03518	0.262351	-0.126009	0.881569	-0.061554	-0.283532	0.908133	-0.018932	-0.129681	0.899317	0.153878	-0.273879	0.913089	0.128008	-0.294363	1.343858	0.016628	-0.234937	1.280999	0.012854	-0.257719	1.289361	-0.089882	-0.249773	1.298216	0.122913	-0.248539	1.572334	0.011954	-0.188771	1.138716	0.29789	-0.243598	1.091495	-0.196056	-0.165934	0.604456	0.218497	-0.229602	0.522262	-0.08916	-0.233987	0.302657	0.238431	-0.253995	0.245623	-0.080006	-0.073925	0.997255	0.316989	-0.188203	0.927975	-0.157197
2009	2.009	-0.316531	0.031369	-0.03578	-0.260879	0.074439	-0.067847	-0.24897	0.055538	-0.022622	-0.191622	-0.012488	-0.16003	-0.115044	0.02483	-0.12024	-0.128429	0.756323	-0.136317	-0.140345	0.76531	-0.156231	-0.236533	1.240115	-0.101345	-0.334209	1.244009	-0.08504	-0.244536	0.44559	-0.033421	-0.288009	0.444358	0.033202	-0.198626	0.974973	-0.170464	-0.235632	0.953122	-0.141526	-0.27305	0.048988	0.198881	-0.213343	0.077296	0.196833	-0.226461	0.08591	0.158089	-0.089828	0.018707	0.226238	-0.050335	0.029543	0.176823	0.009623	0.867666	0.313497	-0.00058	0.882409	0.367449	-0.258857	1.308353	0.142617	-0.331263	1.258464	0.12114	-0.217052	0.542625	0.188359	-0.270817	0.567113	0.126076	-0.133016	1.073645	0.290841	-0.139648	1.035679	0.262669	-0.126009	0.88154	-0.061564	-0.283535	0.908118	-0.018964	-0.129706	0.899309	0.153866	-0.273899	0.913087	0.127977	-0.29447	1.343793	0.016462	-0.235011	1.280963	0.012737	-0.257756	1.289272	-0.090012	-0.249899	1.298215	0.122782	-0.248645	1.572313	0.011852	-0.188651	1.139143	0.298013	-0.243541	1.091442	-0.196106	-0.165944	0.604468	0.218504	-0.229578	0.522262	-0.089165	-0.233975	0.302659	0.238419	-0.253984	0.245621	-0.080009	-0.073395	0.998	0.317373	-0.18813	0.927941	-0.157226
2010	2.01	-0.31653	0.031368	-0.035781	-0.260877	0.074439	-0.067846	-0.248969	0.055537	-0.022622	-0.19162	-0.012485	-0.160032	-0.115042	0.024831	-0.120239	-0.128359	0.756295	-0.136276	-0.140267	0.765278	-0.156198	-0.23653	1.240044	-0.101452	-0.334215	1.243903	-0.085192	-0.244528	0.445594	-0.033426	-0.288015	0.444367	0.033188	-0.198562	0.974918	-0.170533	-0.235564	0.953062	-0.141595	-0.273048	0.048984	0.198874	-0.213342	0.077295	0.196827	-0.226459	0.085907	0.158082	-0.089825	0.018713	0.22624	-0.050331	0.02955	0.176826	0.010403	0.868575	0.314083	0.000174	0.883387	0.368011	-0.258991	1.308365	0.142474	-0.331367	1.258437	0.120983	-0.217046	0.542629	0.188354	-0.270792	0.567106	0.126049	-0.132742	1.07419	0.29113	-0.139252	1.036167	0.263005	-0.126007	0.881514	-0.061573	-0.283538	0.908104	-0.018995	-0.12973	0.899303	0.153854	-0.27392	0.913086	0.127947	-0.294563	1.343742	0.01629	-0.235076	1.280936	0.012614	-0.257779	1.289197	-0.090148	-0.250021	1.298224	0.122647	-0.248752	1.572292	0.011749	-0.188533	1.139572	0.298137	-0.243485	1.091389	-0.196156	-0.165955	0.60448	0.21851	-0.229555	0.522262	-0.089171	-0.233963	0.302661	0.238408	-0.253973	0.24562	-0.080012	-0.072862	0.998757	0.317751	-0.188056	0.927907	-0.157252
